<svg xmlns="http://www.w3.org/2000/svg" viewBox="0 0 160 200" x="0px" y="0px"><path d="M155,150c-2.88,0-4.72-.64-6.44-1.72,7.11-6.19,11.44-14.35,11.44-23.28,0-2.76-2.24-5-5-5H85v-10h70c1.89,0,3.62-1.07,4.47-2.76,.85-1.69,.67-3.72-.47-5.24L84,2c-.11-.14-.23-.26-.35-.39-.05-.06-.1-.12-.15-.17-.21-.2-.43-.39-.68-.56-.06-.04-.14-.08-.2-.12-.18-.11-.37-.22-.56-.31-.1-.05-.21-.08-.31-.12-.18-.07-.36-.12-.55-.17-.11-.03-.21-.05-.32-.07-.26-.05-.52-.07-.79-.08-.03,0-.06,0-.09,0H25c-1.61,0-3.12,.77-4.06,2.08-.94,1.3-1.2,2.98-.69,4.5l4.47,13.42-4.47,13.42c-.51,1.52-.25,3.2,.69,4.5,.94,1.3,2.45,2.08,4.06,2.08h50V120H5c-2.76,0-5,2.24-5,5,0,8.93,4.33,17.09,11.44,23.28-1.72,1.08-3.55,1.72-6.44,1.72s-5,2.24-5,5,2.24,5,5,5c6.95,0,11.05-2.55,14.24-5,.48-.37,.94-.74,1.39-1.1,2.94-2.35,4.88-3.9,9.38-3.9s6.44,1.55,9.38,3.9c.45,.36,.91,.73,1.39,1.1,3.18,2.45,7.28,5,14.24,5s11.05-2.55,14.23-5c.48-.37,.94-.74,1.39-1.1,2.94-2.35,4.88-3.9,9.38-3.9s6.44,1.55,9.38,3.9c.45,.36,.91,.73,1.39,1.1,3.18,2.45,7.28,5,14.23,5s11.05-2.55,14.23-5c.48-.37,.94-.74,1.39-1.1,2.94-2.35,4.88-3.9,9.38-3.9s6.44,1.55,9.38,3.9c.45,.36,.91,.73,1.39,1.1,3.18,2.45,7.28,5,14.23,5,2.76,0,5-2.24,5-5s-2.24-5-5-5Zm-70-50V20l60,80h-60ZM31.94,30l2.81-8.42c.34-1.03,.34-2.14,0-3.16l-2.81-8.42h43.06V30H31.94Zm98.06,110c-8,0-12.23,3.38-15.62,6.1-2.94,2.35-4.88,3.9-9.38,3.9s-6.44-1.55-9.38-3.9c-3.39-2.72-7.62-6.1-15.62-6.1s-12.23,3.38-15.62,6.1c-2.94,2.35-4.88,3.9-9.38,3.9s-6.44-1.55-9.38-3.9c-3.39-2.72-7.62-6.1-15.62-6.1-4.35,0-7.58,1-10.17,2.35-4.54-3.36-7.78-7.61-9.13-12.35H149.3c-1.35,4.74-4.59,8.99-9.13,12.35-2.59-1.35-5.82-2.35-10.17-2.35Z"/></svg>