<svg xmlns="http://www.w3.org/2000/svg" viewBox="20 -10 50 180"><path fill="#222222" d="M159.77,123.57c-1.31-16.74-8.61-31.82-19.77-43.09v-20.6c11.29-1.2,20.11-10.77,20.11-22.37,0-.93-.07-1.88-.22-2.99l-.5-3.79-3.79-.5c-1.11-.15-2.06-.22-2.99-.22-7.06,0-13.37,3.27-17.5,8.38-4.13-5.11-10.44-8.38-17.5-8.38-.93,0-1.88,.07-2.99,.22l-3.79,.5-.5,3.79c-.15,1.11-.22,2.05-.22,2.99,0,11.52,8.71,21.04,19.89,22.34v12.28c-11.1-7.64-24.54-12.12-39-12.12h-22c-3.33,0-6.6,.25-9.81,.71l-3.19-.42c2.52-3.63,4-8.04,4-12.78,0-.94-.07-1.89-.22-2.99l-.51-3.79-3.79-.5c-1.11-.15-2.06-.22-2.99-.22-7.06,0-13.37,3.27-17.5,8.38-4.13-5.11-10.44-8.38-17.5-8.38-.93,0-1.88,.07-2.99,.22l-3.79,.5-.51,3.79c-.15,1.1-.22,2.06-.22,2.99,0,4.75,1.48,9.15,4,12.78l-3.27,.44-.51,3.79c-.15,1.1-.22,2.06-.22,2.99,0,6.39,2.68,12.16,6.97,16.26C7.53,94.6,1.42,108.4,.23,123.57c-.14,.46-.23,.93-.23,1.43,0,.28,.04,.54,.08,.8-.05,1.06-.08,2.12-.08,3.2v31H160v-31c0-1.07-.03-2.14-.08-3.2,.04-.26,.08-.53,.08-.8,0-.5-.1-.98-.23-1.43ZM120.44,40.32c4.63,1.07,8.29,4.73,9.36,9.36-4.63-1.07-8.29-4.73-9.36-9.36Zm29.36,0c-1.07,4.63-4.73,8.29-9.36,9.36,1.07-4.63,4.73-8.29,9.36-9.36Zm-100.11,30c-1.07,4.63-4.73,8.29-9.36,9.36,1.07-4.63,4.73-8.29,9.36-9.36Zm-20,9.36c-4.63-1.07-8.29-4.73-9.36-9.36,4.63,1.07,8.29,4.73,9.36,9.36Zm20-29.36c-1.07,4.63-4.73,8.29-9.36,9.36,1.07-4.63,4.73-8.29,9.36-9.36Zm-20,9.36c-4.63-1.07-8.29-4.73-9.36-9.36,4.63,1.07,8.29,4.73,9.36,9.36Zm25.32,90.32H10v-19.05c1.53,.69,2.81,1.71,4.38,2.96,3.39,2.72,7.62,6.1,15.62,6.1s12.23-3.38,15.62-6.1c2.94-2.35,4.88-3.9,9.38-3.9h0v20Zm40,0h-30v-40c0-8.27,6.73-15,15-15s15,6.73,15,15v40Zm-15-65c-13.79,0-25,11.21-25,25v10h0c-6.95,0-11.05,2.55-14.23,5-.48,.37-.94,.74-1.39,1.1-2.94,2.35-4.88,3.9-9.38,3.9s-6.44-1.55-9.38-3.9c-.45-.36-.91-.73-1.39-1.1-2.21-1.7-4.88-3.45-8.63-4.36,1.73-12.14,7.16-23.09,15.12-31.68,1.37,.43,2.8,.74,4.28,.9v10.14c0,2.76,2.24,5,5,5s5-2.24,5-5v-10.14c10.17-1.13,18.31-9.06,19.77-19.13,3.01-.48,6.09-.73,9.23-.73h22c29.69,0,54.32,22.05,58.4,50.64-3.75,.91-6.42,2.66-8.63,4.36-.48,.37-.94,.74-1.39,1.1-2.94,2.35-4.88,3.9-9.38,3.9s-6.44-1.55-9.38-3.9c-.45-.36-.91-.73-1.39-1.1-3.18-2.45-7.28-5-14.23-5v-10c0-13.79-11.21-25-25-25Zm70,65h-45v-20c4.49,0,6.43,1.55,9.37,3.9,3.39,2.72,7.62,6.1,15.62,6.1s12.23-3.38,15.62-6.1c1.56-1.25,2.85-2.27,4.38-2.96v19.05Zm-65-40c0,2.76-2.24,5-5,5s-5-2.24-5-5,2.24-5,5-5,5,2.24,5,5ZM135,30c8.27,0,15-6.73,15-15s-6.73-15-15-15-15,6.73-15,15,6.73,15,15,15Zm0-20c2.76,0,5,2.24,5,5s-2.24,5-5,5-5-2.24-5-5,2.24-5,5-5Z"/></svg>