<svg xmlns="http://www.w3.org/2000/svg" viewBox="0 0 160 200"><path fill="#222222" d="M135,20V5c0-2.76-2.24-5-5-5s-5,2.24-5,5v15H25C11.21,20,0,31.21,0,45v10c0,2.76,2.24,5,5,5h5V125c0,2.76,2.24,5,5,5h7.71c-1.71,2.95-2.71,6.36-2.71,10,0,11.03,8.97,20,20,20s20-8.97,20-20c0-3.64-1-7.05-2.71-10h22.71v25c0,2.76,2.24,5,5,5s5-2.24,5-5v-5h20v5c0,2.76,2.24,5,5,5s5-2.24,5-5v-25h25c2.76,0,5-2.24,5-5V60h5c2.76,0,5-2.24,5-5v-10c0-13.79-11.21-25-25-25ZM40,150c-5.51,0-10-4.49-10-10s4.49-10,10-10,10,4.49,10,10-4.49,10-10,10Zm-20-30V60h60v60H20ZM90,60h20v40h-20V60Zm0,50h20v10h-20v-10Zm0,30v-10h20v10h-20Zm50-20h-20V60h20v60Zm10-70H10v-5c0-8.27,6.73-15,15-15h110c8.27,0,15,6.73,15,15v5Z"/></svg>